<?xml version="1.0" standalone="no"?>
<!DOCTYPE svg PUBLIC "-//W3C//DTD SVG 20010904//EN"
 "http://www.w3.org/TR/2001/REC-SVG-20010904/DTD/svg10.dtd">
<svg version="1.0" xmlns="http://www.w3.org/2000/svg"
 width="32.000000pt" height="32.000000pt" viewBox="0 0 32.000000 32.000000"
 preserveAspectRatio="xMidYMid meet">

<g transform="translate(0.000000,32.000000) scale(0.100000,-0.100000)"
fill="#000000" stroke="none">
<path d="M0 160 l0 -160 160 0 160 0 0 143 -1 142 -54 -120 c-30 -66 -59 -121
-65 -123 -6 -2 -31 8 -56 23 -46 27 -107 107 -102 133 2 7 57 37 123 67 l120
54 -142 1 -143 0 0 -160z"/>
<path d="M224 259 c-10 -17 13 -36 27 -22 12 12 4 33 -11 33 -5 0 -12 -5 -16
-11z"/>
<path d="M120 200 c0 -5 5 -10 10 -10 6 0 10 5 10 10 0 6 -4 10 -10 10 -5 0
-10 -4 -10 -10z"/>
<path d="M171 156 c-17 -20 -2 -48 23 -44 24 3 34 37 14 49 -18 12 -24 11 -37
-5z"/>
</g>
</svg>
